<svg xmlns="http://www.w3.org/2000/svg" viewBox="0 0 120 132" fill="none" aria-hidden="true">
  <path
    d="M60 6 L106 118 L14 118 Z"
    fill="#B5B5B5"
  />
  <path
    d="M60 6 L106 118 L88 118 L60 42 Z"
    fill="#8E8E8E"
  />
  <path
    d="M14 118 L38 118 L60 78 L60 42 L14 118 Z"
    fill="#D8D8D8"
  />
  <g stroke="#F4F4F4" stroke-width="1.2" stroke-linecap="round">
    <path d="M22 112 H52" />
    <path d="M26 104 H56" />
    <path d="M30 96 H60" />
    <path d="M34 88 H64" />
    <path d="M38 80 H66" />
    <path d="M42 72 H68" />
    <path d="M46 64 H70" />
  </g>
  <g stroke="#2A2A2A" stroke-width="1.4" stroke-linecap="round">
    <path d="M78 34 V112" />
    <path d="M84 40 V112" />
    <path d="M90 48 V112" />
    <path d="M96 56 V112" />
    <path d="M102 66 V112" />
  </g>
  <path
    d="M60 6 L63 10 L58 12 L61 18 L56 20 L60 28 L54 26 L52 32 L48 28 L44 34 L42 30 L38 36 L36 32 L32 40 L30 36 L26 44 L24 40 L20 48 L18 44 L16 52 L14 48 L14 118 L106 118 L104 112 L100 114 L98 108 L94 110 L92 104 L88 106 L86 100 L82 102 L80 96 L76 98 L74 92 L70 94 L68 88 L64 90 L62 84 L60 6 Z"
    fill="#050505"
    fill-opacity="0.35"
  />
  <g fill="#050505">
    <rect x="98" y="114" width="2" height="8" />
    <rect x="102" y="116" width="2" height="6" />
    <rect x="106" y="118" width="2" height="4" />
  </g>
</svg>
